<?xml version="1.0" encoding="utf-8"?>
<!-- Generator: Adobe Illustrator 22.1.0, SVG Export Plug-In . SVG Version: 6.00 Build 0)  -->
<svg version="1.1" id="Layer_1" xmlns="http://www.w3.org/2000/svg" xmlns:xlink="http://www.w3.org/1999/xlink" x="0px" y="0px"
	 viewBox="0 0 1028.9 207" style="enable-background:new 0 0 1028.9 207;" xml:space="preserve">
<style type="text/css">
	.st0{fill:none;stroke:#00445F;stroke-miterlimit:10;}
	.st1{fill:#00445F;}
	.st2{fill:#0077BD;stroke:#0077BD;stroke-miterlimit:3.86;}
	.st3{fill:#FFFFFF;stroke:#0077BD;stroke-width:0.42;stroke-miterlimit:3.86;}
	.st4{fill:#0077BD;stroke:#0077BD;stroke-width:0.42;stroke-miterlimit:3.86;}
</style>
<g id="Ebene_2">
	<g id="IPP">
		<line class="st0" x1="268.1" y1="0" x2="268.1" y2="207"/>
		<path class="st1" d="M2.8,104.2c0-54.6,44.3-98.9,98.9-98.9s98.9,44.3,98.9,98.9s-44.3,98.9-98.9,98.9l0,0
			C47.1,203,2.9,158.8,2.8,104.2z M0,104.2c0,56.2,45.5,101.7,101.7,101.7s101.7-45.5,101.7-101.7C203.4,48,157.9,2.5,101.7,2.5
			C45.6,2.6,0.1,48,0,104.2z"/>
		<path class="st1" d="M168.5,120.7c-2.8,2.6-6.7,2.6-9.9,4.7c-1.5,1.5-1.1,3.1-0.5,4.9c1.2,2.3,0.7,2.1-0.9,2.6
			c-3.8,1.3-3.8,5.5-8.4,4.8c-0.3,0.1-1.3-0.5-0.7,0.3c0.5,0.6,0.7,0.2,1.7,0.4c1.6,0.1,2.2-0.6,3.4-1.4c1.6-1.4,1.4-1.9,3.5-2.9
			c0.8-0.3,1.6-0.3,2.3-0.2c0.4,0.4,0.5,0.4,0.5,0.8c-0.3,1.1-1.9,2.1-2.5,2.4c0.9,0.6,2.5,1.7,2.2,2.6c-0.4,0.6-0.4,0.7-1,1
			c-1.5,0.5-3.2,0.2-4.5-0.9c-0.3,0.1-0.6-0.5-1.3,0.2c1.7,1.7,4,1.3,4.4,1.7s-1.2,2.4-1.3,2.9c-1.1,3,0.2,5.7-0.4,8.8
			c-0.2,2.1-1.4,4-3.2,5.1c-3.9,2.7-6.6,3.5-11,4.2c-11.5,0.8-18.7-3.1-27-9.3s-11.4-9.5-14-12.9c0-1.4,1-2.5,0.1-4
			c-0.8,0.3-0.7,1.2-1.1,1.8c-0.8,1-2,1.5-3.2,1.5c-3.4-1.2-3.6-5.2-5.7-7.4c-4.5-4.2-5.8-10.7-3.4-16.4c0.9-1.8,2.3-3.1,4.1-3.9
			c2.1-0.3,4.6-0.3,6,1.7c1.6,1.8,2.7,4,3.1,6.3c0.7,1.1-0.2,2.3,1,3.2c1.9,0.2,3.6,0.7,5.5-0.5c1.4,0.2,1.6,1.7,2.6,2.4l1.9,1.1
			c2,0.9,4.4,0.7,6.2-0.6c3.1-3.2,2.4-6.5,3.5-10.1c3-2.5,4.8-6.2,4.9-10.2c-0.3-2.5-1.1-4.8-2.3-6.9c0.3-1.2,0.8-2.4,1.4-3.6
			c0.4-0.2,0.8-0.3,1.3-0.3c3.3-0.7,6.4-3.7,7.7-6.9l0.3-0.3c3.8-0.3,8.6-1.6,10.8-5.6c0.4-1.7,2.4-0.4,3.6-0.9
			c2.1-0.2,4-1.1,5.6-2.5c0.4-0.2,0.8,0.3,1.1,0.6c0.9,3,2.5,5.9,3.5,8.9c1.1,2.1,1.6,4.4,1.2,6.8c0.5,3.6,2.5,6.9,3.9,10.5
			c1.4,3.8,3.6,7.6,5.2,11.5C168.8,118.2,169.5,119.5,168.5,120.7z M169.3,114.2c-2.7-6.2-5.7-11.6-7.9-17.8c-1.6-2.2-0.7-4.6-0.9-7
			c-1-3.7-2.6-6.6-4.1-10.2c-0.4-1,0.8-1.3,1.2-2.1c0.5-1.9,0.3-3.9-0.6-5.7c-0.3-1,0.9-1.7,0.6-2.8c0-1.6-1.5-2.7-2.6-3.6
			c-1.3-2.1-2.9-4.1-4.6-5.9v-0.4c1.1-1,1.8-2.4,1.9-3.9c-0.4-1.6-0.8-3-2.2-4.1c-2.4-1.3-4.8,0.8-6.7,1.8c-0.5,0.4-0.8,0.8-1.5,0.7
			l-1.5-0.5c-0.6,0.6-1.2,1.2-1.8,1.7l2.3,0.9c0.1,0.1,0.1,0.1,0.1,0.2c0,0.1,0,0.1,0,0.2l-5.4,4.7l-9.4,9.3l-2.7,2.7l-8.4,9.6
			c-5.3,6.2-10.2,12.7-14.7,19.4c-2,2.8-4,5.9-5.9,8.8c-0.2,0.3-0.6,0.3-1.2,0.2c-0.4-0.1-0.8-0.1-1.2,0l0,0H92h0.1
			c-2,0.2-3.9,1-5.3,2.4c-2.1,2.5-3.3,5.6-3.2,8.9c0,2.4,0.6,4.8,1.6,7c-0.6,1.3-1.4,2.4-2.3,3.4l-0.5,0.6l-0.6,0.6
			c-0.4,0.4-0.9,0.8-1.2,1.3l0,0v0.1c0,0.1-0.1,0.4,0.3,0.6l0.1,0.1H81c2-0.5,3.2-2,4.4-3.4l0.9-1c0.2,0,0.3,0.1,0.6,0.3
			c0.1,0.1,0.3,0.2,0.5,0.3v0.1c0,0,0,0.6,0,0.8c-4,4-8.5,7.4-13.5,10.1l-0.8,0.5l1,0.1c1.9,0.2,3.8-0.9,5.6-2l2.1-1.2
			c2-1.1,3.9-2.5,5.6-4.1l1.7-1.4c0.2,0,0.3,0.2,0.5,0.4l0.2,0.2l1.6,3.1c-0.3,1.3-0.5,2.7-0.5,4.1c0.1,3,0.5,6,1.2,8.9
			c0.7,2.9,1.2,5.8,1.3,8.8c0,0.2,0,0.4,0,0.6c-0.2,1.1-0.8,2-1.8,2.5c-2.2,0.3-4.3,0.4-6.5,0.4c-2.8-0.1-5.6,0.1-8.3,0.7
			c-0.8,0.1-1.7,0.3-2.5,0.6c-0.8,0.2-1.6,0.4-2.5,0.6h-0.1l-0.1,0.1l-0.3,0.2c-0.3,0.1-0.6,0.4-0.7,0.8c0,0,0,0.1,0,0.1
			c0,0.2,0.1,0.5,0.3,0.6c0.1,0.2,0.4,0.2,0.6,0.2c0.8-0.1,1.5-0.3,2.3-0.6c0.5-0.2,1.1-0.4,1.6-0.5c4.6-0.7,9.2-0.8,13.9-0.4
			c1.8,0,4.7-0.1,5.8-2.6c0.3-0.9,0.5-1.9,0.5-2.9c0-1-0.1-2-0.3-3l-0.3-2.5c-0.2-1.5-0.5-3-0.8-4.5c-0.6-2.6-1-5.2-1.1-7.9
			c0-0.5,0-1.1,0.1-1.6c0.1-0.1,0.1-0.1,0.2-0.2s0.4,0.2,0.7,0.4c0.2,0.2,0.5,0.4,0.8,0.5c0.3,0.2,0.6,0.3,1,0.4
			c0.5,0.1,0.7,0.1,0.9,0.5c0.3,2.4,0.9,4.9,1.8,7.2c0.6,1.6,1.1,3.3,1.5,4.9c0.7,2.8,1.2,5.7,1.3,8.7c0,1.7-0.3,3.4-0.8,5.1
			c-1.2,2.3-4,2.3-6.6,2.3h-0.8l-6.5-0.4c-5.6-0.4-11.3-0.8-17.2,0.1l-1.3,0.1c-0.7,0.1-1.4,0.1-2.2,0c-0.3-0.2-0.5-0.6-0.5-1
			c0-0.1,0-0.3,0.1-0.4c1-2,1.5-4.1,1.6-6.3c0-1.4-0.3-2.8-1-4c-1.2-2.5-3-4.7-5.2-6.4c-2.5-2.5-4.7-4.8-6.6-6.9
			c-0.6-0.1-1.3-0.2-1.9-0.4l-0.2-0.1l-1.1,1.4c1.5,1.4,2.8,2.8,4.5,4.3c2.5,1.4,4.5,3.8,6.3,5.4c2,2.2,2.8,5.3,2.2,8.2
			c-0.3,3.6-3.5,5.1-5.8,7.4c-0.9,1.7-1.5,3.7-0.2,5.3c0.8,2.1,4.2,1.7,4.6,3.4c0.9,3.8,7.5,6,8.8,6.1c1,0.2,1.9,0.7,2.6,1.5
			c2.6,1.9,6.1,1.4,7.9,1.2s5,1.2,7.1,0.9c3-1.2,5.5-0.6,8.6-0.9c9.9,0.1,21.1-0.1,31.2,1.2c1.9-0.2,4.1,1.2,5.9,0.3
			c0.4-0.8,0.1-1.4,0-2c-4.7-7.2-5.7-16.2-2.8-24.4l1.8,0.1c6.7,0.9,13.4-0.5,19.1-4c3.3-1.8,5.1-6.1,4.9-9.2
			c-0.1-2-0.8-4.4-0.5-6.5c0.1-1.1,0.7-2.1,1.6-2.9c0.9-0.5,1.6-1.2,2-2.1c0.4-1.1-0.1-2.3-1.1-2.8c1.4-0.9,1.9-2.8,1.1-4.3
			c-0.7-1.3-1.2-2.7-1.4-4.1c-0.2-1.2-0.3-2.5,0.9-3.3c2.6-1.4,5.1-1.7,7.8-2.9c1.8-0.8,2.9-2.6,2.8-4.5L169.3,114.2z M62.5,175.8
			c-0.2,0.5-0.4,1.1-0.4,1.7c-0.2,0.3-1.1-0.1-1.4-0.3c-1.2-0.6-1.1-0.3-1.4-1.4c-0.3-0.9,0.1-1.9,1-2.2c0.8-0.4,2.2-0.9,2.7,0
			C63.1,174.3,62.3,175.1,62.5,175.8z M68.8,183.9c-1.5,0-2.6-0.8-3.3-2.6c-0.8-2.2-0.9-4.5-0.5-6.7c0.2-0.3,0.5-0.5,0.7-0.4
			l2.1-0.7c0.6-0.3,1.3-0.4,2-0.2l0.4,0.4c0,1.2-0.3,2.2-0.4,3.3c-0.1,2.9-0.4,3.8,0.5,6.5C70.1,184.2,69.5,183.9,68.8,183.9
			L68.8,183.9z M156.7,76.4c-0.2,0.2-0.5,0.5-0.8,0.4c-0.8-0.6-0.5-1.3-0.4-1.9c0.2-0.2,0.2-0.2,0.4-0.2c0.3,0,0.6,0.1,0.7,0.4
			C156.8,75.5,156.8,76,156.7,76.4z M96,111.4c5.2-9.4,11.6-17.5,18.4-25.9l9.5-10.8c6.8-7.2,14.3-14.7,22.6-20.4
			c1-0.6,1.5-1.8,2.6-1l1,0.9c0.7,0.8,0.1,2.9-0.6,3.5l-1.6,1.3c1.6,1.6,4,4.7,5.9,6.7c0.9,0.9,0.6,1.8,2.1,2.5
			c0.6,0.3,0.9,1,0.7,1.6c0,0.1-0.1,0.2-0.1,0.3c-1.3,1.7-3.6,1.5-5.3,1.9c-6.6,1.5-13,3.8-19.1,6.8c-5.7,2.8-10.7,6.8-14.6,11.7
			c-1.6,2-3.4,3.5-4.7,5.9c-3.6,4.6-6.9,9.5-9.9,14.5c-0.8,1.4-1.8,2.7-3,3.8c-0.7,0.7-1.4-0.8-1.8-1.3c0-0.1-0.1-0.1-0.1-0.2
			c-0.2,0-0.3,0-0.5-0.1C97.1,112.6,95.8,112.3,96,111.4z M153.6,75.2c-0.1,1.8-2.5,3.3-4.5,3.9c-0.8,0.1-1.6,0.1-2.4,0.1
			c-0.2-0.1-0.4-0.3-0.4-0.5c0.1-0.9,0.3-1.4,0.3-2.1l0.5-0.4c1.8-0.4,4-0.8,5.8-1.2C153.2,74.9,153.5,74.9,153.6,75.2L153.6,75.2z
			 M134.9,79.9l0.3-0.4c1.4-0.7,2.9-1.3,4.4-1.7l1.9-0.5c0.5-0.5,1.4-0.8,1.9-0.2c-0.1,2.9-1.9,5.5-4.6,6.7c-1,0.3-2,0.6-3.1,0.8
			c-0.3-0.2-1.1,0.2-1.4-0.4C134.6,82.9,135.1,81,134.9,79.9L134.9,79.9z M114.9,124.6c-0.5,0.3-5-1.4-4.5-0.9
			c-1.1-1.2,0.7-1.6-3.3-3l-1,0.1c-0.1,0.1-0.5,0.3-0.8-0.2c0-0.6,0.8-0.5,1-1.3c1.4-3.2,0.6-5.7,0.5-9l1.1-2.7
			c1-1.4,2.2-2.8,3.3-4.1c0.9-1.4,2.1-2.6,3.5-3.6c0.3-0.3,0.8-0.4,1.2-0.2c0.6,0.5,1.1,1.2,1.2,2c0.4,3.2-1.5,5.4-3.8,7.1
			c-1.7,1.4-3.2,3.6-2.9,5.8l0.1,0.2c0.8-0.6,1.7-1,2-1.8c1.3-2.8,4.6-4.1,6.5-6.5c0.8-1.5,0.3-4,0-5.7c0,0,2.5-1.2,1.8-0.7
			c1.2,0.5,1,1.3,1.6,2.4c1.2,2.5,0.9,5.5-0.7,7.8L117,116C117,119,117.8,122.8,114.9,124.6L114.9,124.6z M121.1,96.2
			c-1.1,0.6-2.4,0.6-3.6,0.1c-0.3-0.4-1.3-0.8-0.9-1.4c0.9-1.5,2.4-2.7,3.4-4.1l0.4-0.2c1.9-2.3,4.9-4.2,7.8-6l1.7-0.8
			c0.4-0.4,1.3-1.2,1.6-0.3c0.1,3.3-1.4,6.4-4.1,8.4c-1.7,1.3-2.5,1-4,1.1l-0.8,1.4C122.4,95.1,121.9,95.7,121.1,96.2L121.1,96.2z
			 M105.2,113.4l-0.1,2.1c-0.1,2.1-1.2,4.1-2.9,5.3c-1.1-0.3-0.7-1.6-1-2.5c0.9-1.9,2-3.7,3.3-5.3c0.1-0.1,0.3-0.2,0.5-0.1
			L105.2,113.4z M79.2,187.5c-0.8,0.8-1.2,0.4-2,0.5c-2.2-0.6-3.5-1.6-4.1-4c-0.8-3.6-0.8-7.3,0-10.8l0.3-0.3
			c1.6-0.2,3.9-0.5,4.5-0.1s-0.7,6.6-0.7,6.6c0.1,2.1,0.5,4.1,1.1,6.1C78.6,185.6,79.9,186.8,79.2,187.5L79.2,187.5z M95.2,183.6
			c-0.2,2.2-3,4.2-4.4,4.6c-2.2,0.3-4.5,0.3-6.7-0.2c-1.2-0.4-4.1-6-3.7-8.9c0-2.4,0.7-6.2,1.6-6.5c1.2-0.2,2.4-0.2,3.5-0.1
			c0.9,0,1.9,0.1,2.8,0.3c0.7,0.3,0.2,1.1,0.4,1.6c0.2,1.3,0.6,2.6,1.2,3.8c1.1,1.9,2.9,3.4,5,4.1C95.4,182.5,95.2,183.1,95.2,183.6
			L95.2,183.6z M92.1,174.2c0-0.4,0-0.6,0.4-0.8h1.8c1.6,0.1,3.8,0.6,5.3-1c0.9,0,1,1.1,1.2,1.9c0.2,0.9,0.2,1.9,0.2,2.9
			c-0.3,1-0.8,1.9-1.6,2.6c-1.2,0.6-2.7,0.6-3.9,0C93.3,178.6,92.1,176.5,92.1,174.2L92.1,174.2z M129.9,165.3
			c-2.5,8.6-3.7,13,0.2,21.8c0,0.3,0.4,1.4,0,1.6c-3.1-0.8-6.2-1.3-9.4-1.5c-3.7-0.6-9.8,0.4-14,0.4c-3.2,0.1-6.5,0.2-9.8,0.6
			c-1-0.5-0.2-1.6-0.2-2.4c0.3-1,0.5-2,0.5-3.1c0.5-0.6,1.2-0.3,1.8-0.5c2.2-0.4,3.9-2.1,4.5-4.3c0.7-2.1-0.1-4.5-1-6.5
			c-0.2-0.6-1-1-0.7-1.6c2.7-5,0.8-10-0.1-14.9c-0.9-3.4-2.4-7.2-2.9-10.9c0.1-0.4-0.4-1.2,0.4-1.3l0.3,0.1c2.8,3.4,11,10.7,14,13.1
			s10.9,7,16,8.2C130.2,164.5,130.1,164.8,129.9,165.3L129.9,165.3z"/>
		<path class="st1" d="M151.5,90.9c0.5,0.7,0.9,1.3,0.4,1.9c-1,0.1-1.1-1.2-1.9-1.6c-1.4-0.7-2.5,0-3.9,0.4
			c-3.4,1.5-6.2,4.4-9.5,5.9c-0.4,0-0.7-0.1-1-0.3c0.6-0.6,1.5-0.7,2.2-1.1c3.4-2.2,6.7-5.8,10.9-6.4
			C149.8,89.6,150.9,90.1,151.5,90.9z"/>
		<path class="st1" d="M151.3,96.7c-0.3-0.8-0.2-2.2-1.2-2.4c-0.2,0.5,0,1.1-0.2,1.6c-0.3,0.5-0.9,0.7-1.4,0.7
			c-4.1,0.3-7.2,3.9-10.7,5.8c-1.2,0.6-2.5,1.1-3.8,1.4c-0.1,0.2-0.1,0.4,0.1,0.6c3.9,0.4,7.7,0.8,11.6,1.2l4.3-0.5
			c0.1-0.6-0.6-1-0.4-1.7c0.5-1.7,0.6-3.6,0.1-5.3C149.9,97.1,151.2,97.8,151.3,96.7z M148.3,103.3c-0.5,0.8-1.4,0.1-2.1,0.2
			c-1.7-0.2-4.5,0.2-6.4,0c-0.3-0.2-0.5-0.4-0.3-0.7c0.3-0.5,1.1-0.5,1.6-0.8c2-1.3,4.2-2.4,6.5-3c0.4,0,0.7,0.2,0.8,0.6
			C148.5,100.8,148.5,102.1,148.3,103.3L148.3,103.3z"/>
		<path class="st1" d="M153.4,116c0.1-0.2,0.3-0.4,0.5-0.4s0.4,0.2,0.4,0.7c-0.1,0.8-0.2,1.5-0.4,2.3c-0.3,0.9-0.4,1.8-0.4,2.8
			c0,0.4,0,0.8,0.1,1.2c0.6,0.7,1.6,0.9,2.4,0.5l1.7-1c1.7-1.1,3.5-1.9,5.4-2.4c0.1,0,0.1,0,0.1,0c0,0.1,0.1,0.2,0.1,0.3
			c0,0.3-0.1,0.5-0.2,0.8l-2.5,1.1c-1.9,0.8-3.8,1.7-5.6,2.7c-0.5,0-1.1-0.1-1.5-0.5l-0.1-0.1c-0.6-0.8-0.9-1.8-0.9-2.8
			c0-0.8,0.2-1.7,0.4-2.5c0.2-0.8,0.3-1.6,0.4-2.4L153.4,116z"/>
		<path class="st1" d="M95.2,115.2c1.3,2.8-0.1,5.4,0,8.3c0.2,0.8,1.8,0.9,1.3,1.9c-0.4,0.3-0.9,0.3-1.3,0c-0.7-0.3-1.1-1-1.2-1.7
			c-0.2-2.5,1.8-5.5,0-7.9c-0.5-0.6-1.2-1-2-1.1c-1.6,0.3-2.4,2-3,3.3c-0.9,3.4-1.1,6.9,1.9,9.6c1.7,1,3.8,2.1,3.9,4.3
			c0.3,0.4,0.8,0.8,1.2,0.5c0.5,0,0.6-1.5,1.3-0.8l0.2,0.5c-0.2,0.6-0.4,1.6-1.3,1.7c-0.5,0.1-1-0.1-1.4-0.4c-1-1.1-0.2-2.7-2-3.4
			c-2.9-0.9-4.8-4-5.1-6.8s-0.1-5.8,2.3-8.2c0.9-0.8,2.2-1.1,3.4-0.8C94.1,114.1,94.8,114.6,95.2,115.2z"/>
		<path class="st1" d="M58.7,135.4c-5.3,2.5-7,8.8-7,9.1l-0.1,0.6l0.5,0.2c3.7,1,7.7,0.5,11.2-1.2c3.7-1.9,6.4-5.2,7.4-9.3l0.1-0.6
			l-0.6-0.1C66.2,133.4,62.3,133.9,58.7,135.4z M59.2,136.6c3.2-1.3,6.6-1.8,10-1.4c-1,3.3-3.4,6.1-6.5,7.7c-3,1.5-6.4,2-9.7,1.4
			C53.6,142.6,55.3,138.4,59.2,136.6L59.2,136.6z"/>
		<path class="st1" d="M64,123.5c-5.3,2.4-7.3,8.7-7.4,9l-0.2,0.6l0.6,0.2c3.8,0.9,7.7,0.4,11.2-1.4c3.7-1.8,6.4-5.1,7.4-9l0.1-0.6
			l-0.6-0.1C71.4,121.6,67.5,122,64,123.5z M64.5,124.6c3.1-1.3,6.4-1.7,9.7-1.3c-1.1,3.3-3.5,6-6.6,7.4c-3,1.5-6.4,2-9.7,1.4
			C58.6,130.6,60.6,126.4,64.5,124.6L64.5,124.6z"/>
		<path class="st1" d="M70.9,112c-5.3,2.3-7.7,8.6-7.8,8.8l-0.2,0.6l0.7,0.2c3.8,0.8,7.7,0.3,11.2-1.4c3.7-1.7,6.4-4.8,7.5-8.7
			l0.1-0.6l-0.6-0.1C78.1,110.2,74.3,110.6,70.9,112z M71.4,113.2c3-1.2,6.2-1.7,9.4-1.3c-1.2,3.2-3.6,5.7-6.6,7.1
			c-3,1.4-6.3,2-9.6,1.5C65.3,118.9,67.5,114.8,71.4,113.2L71.4,113.2z"/>
		<path class="st1" d="M77.8,100.6c-5.3,2.3-8,8.4-8.1,8.7l-0.3,0.7l0.7,0.2c3.8,0.7,7.7,0.1,11.2-1.5c3.6-1.6,6.4-4.6,7.6-8.4
			l0.2-0.6l-0.6-0.1C84.8,98.8,81.1,99.2,77.8,100.6z M78.3,101.8c2.9-1.2,6.1-1.6,9.2-1.2c-1.2,3.1-3.6,5.6-6.7,6.9
			c-3,1.4-6.3,1.9-9.6,1.6C72,107.4,74.4,103.4,78.3,101.8z"/>
		<path class="st1" d="M87.3,89.2c-5.4,2.2-8.3,8.3-8.5,8.6l-0.3,0.7l0.8,0.2c3.8,0.6,7.7,0,11.2-1.6c3.6-1.5,6.4-4.4,7.7-8.2
			l0.2-0.6l-0.6-0.2C94.2,87.5,90.6,87.9,87.3,89.2z M87.8,90.4c2.8-1.1,5.9-1.5,8.9-1.1c-1.3,3-3.7,5.4-6.7,6.7
			c-3,1.4-6.3,1.9-9.6,1.7C81.3,95.9,83.9,92,87.8,90.4L87.8,90.4z"/>
		<path class="st1" d="M97.8,78.2c-5.4,2.2-8.7,8.2-8.8,8.5l-0.4,0.8l0.8,0.2c3.8,0.5,7.7-0.1,11.2-1.7c6.2-2.7,7.7-7.7,7.8-7.9
			l0.2-0.6l-0.6-0.2C104.5,76.6,101,76.9,97.8,78.2z M98.2,79.4c2.7-1.1,5.7-1.4,8.6-1c-1.4,2.9-3.8,5.2-6.8,6.4
			c-3,1.3-6.3,1.9-9.5,1.7C91.6,84.8,94.4,81,98.2,79.4z"/>
		<path class="st1" d="M109,67.9c-5.4,2.1-9,8.1-9.2,8.3L99.3,77l0.9,0.2c3.8,0.4,7.7-0.2,11.2-1.8c6.2-2.6,7.8-7.4,7.8-7.6l0.2-0.6
			l-0.6-0.2C115.5,66.3,112.1,66.6,109,67.9z M109.5,69.1c2.6-1.1,5.5-1.4,8.3-1c-1.4,2.8-3.9,5-6.8,6.2c-3,1.3-6.2,1.9-9.5,1.8
			C102.6,74.3,105.6,70.6,109.5,69.1L109.5,69.1z"/>
		<path class="st1" d="M120.6,58.3c-5.4,2-9.4,8-9.6,8.2l-0.6,0.8l1,0.1c3.8,0.3,7.7-0.4,11.2-1.9c6.3-2.5,7.8-7.1,7.9-7.3l0.2-0.6
			l-0.6-0.2C127,56.8,123.7,57,120.6,58.3z M121.1,59.5c2.5-1,5.3-1.3,8-0.9c-1.5,2.7-4,4.8-6.9,5.9c-3,1.2-6.2,1.9-9.4,1.8
			C114.1,64.6,117.3,60.9,121.1,59.5L121.1,59.5z"/>
		<path class="st1" d="M132.5,49.7c-5.4,2-9.7,7.9-9.9,8.1l-0.7,0.9l1.1,0.1c3.8,0.2,7.7-0.5,11.2-2c6.3-2.5,7.9-6.8,8-7l0.2-0.6
			l-0.6-0.2C141.6,49,137.9,47.7,132.5,49.7z M132.9,50.9c2.5-1,5.1-1.3,7.8-0.8c-1.6,2.6-4,4.6-6.9,5.7c-3,1.2-6.2,1.8-9.4,1.9
			C125.8,55.9,129.1,52.3,132.9,50.9L132.9,50.9z"/>
		<path class="st1" d="M50.1,123.4c-2.4,3.2-3.8,6.9-4.2,10.8c-0.4,5.9,4.4,10.4,4.6,10.6l0.4,0.4l0.4-0.4c2.7-2.8,4.2-6.6,4.3-10.5
			c0.2-4.2-1.5-8.2-4.6-11l-0.5-0.4L50.1,123.4z M47.1,134.8c0-0.2,0-0.4,0-0.6c0.4-3.4,1.6-6.7,3.6-9.5c2.3,2.4,3.7,5.6,3.7,8.9
			c0,0.2,0,0.4,0,0.5c-0.1,3.3-1.3,6.6-3.4,9.1C49.9,142.2,47.1,138.9,47.1,134.8L47.1,134.8z"/>
		<path class="st1" d="M57.6,110.4c-2.1,2.4-3.6,5.2-4.4,8.2c-0.2,0.7-0.3,1.4-0.4,2.1c-0.7,5.7,3.4,10.4,3.6,10.6l0.4,0.5l0.5-0.4
			c2.8-2.7,4.5-6.2,4.8-10.1c0.5-4-0.8-8-3.6-10.9l-0.5-0.4L57.6,110.4z M54,122c0-0.4,0-0.8,0.1-1.1c0.1-0.6,0.2-1.3,0.4-1.9
			c0.7-2.6,2-5,3.7-7.2c1.8,2.2,2.9,5,2.9,7.9c0,0.5,0,1-0.1,1.5c-0.4,3.3-1.7,6.4-4,8.8C55.2,127.7,54.1,124.9,54,122z"/>
		<path class="st1" d="M66.1,98.3c-2.2,2.2-3.9,4.9-4.9,7.8c-0.2,0.7-0.4,1.3-0.5,2c-1,5.5,2.4,10.4,2.6,10.6l0.4,0.5l0.5-0.4
			c2.8-2.5,4.7-5.9,5.4-9.7c0.8-3.8-0.1-7.8-2.6-10.8l-0.4-0.5L66.1,98.3z M61.7,110.1c0-0.6,0.1-1.2,0.2-1.8
			c0.1-0.6,0.3-1.2,0.5-1.8c0.9-2.5,2.3-4.8,4.1-6.8c1.9,2.7,2.6,6,1.9,9.2c-0.6,3.2-2.2,6.1-4.5,8.4
			C62.6,115.1,61.8,112.7,61.7,110.1L61.7,110.1z"/>
		<path class="st1" d="M75.3,87c-2.4,2-4.2,4.5-5.4,7.4c-0.3,0.6-0.5,1.3-0.6,1.9c-1.3,5.3,1.4,10.4,1.5,10.6l0.3,0.6l0.6-0.4
			c2.9-2.4,5-5.6,6-9.3c1.1-3.6,0.5-7.6-1.6-10.7l-0.4-0.5L75.3,87z M70.2,99.2c0-0.9,0.1-1.8,0.3-2.7c0.1-0.6,0.3-1.2,0.5-1.7
			c1-2.4,2.5-4.6,4.5-6.4c1,1.7,1.5,3.7,1.5,5.7c0,1.1-0.2,2.3-0.5,3.3c-0.9,3.1-2.6,5.9-4.9,8.1C70.8,103.5,70.3,101.4,70.2,99.2z"
			/>
		<path class="st1" d="M85.3,76.4c-2.5,1.8-4.5,4.2-5.9,6.9c-0.3,0.6-0.5,1.2-0.7,1.8c-0.9,3.5-0.7,7.2,0.5,10.6l0.3,0.7l0.7-0.4
			c3-2.3,5.3-5.3,6.6-8.8c1.4-3.4,1.2-7.3-0.6-10.6l-0.3-0.5L85.3,76.4z M79.4,89.4c0-1.3,0.2-2.6,0.6-3.8c0.2-0.6,0.4-1.1,0.6-1.7
			c1.2-2.3,2.8-4.4,4.8-6c0.7,1.4,1,2.9,1,4.5c0,1.5-0.3,3-0.8,4.4c-1.1,3-3,5.7-5.4,7.7C79.7,92.8,79.4,91.1,79.4,89.4z"/>
		<path class="st1" d="M96.1,66.6c-2.7,1.5-4.9,3.8-6.3,6.5c-0.3,0.6-0.6,1.2-0.8,1.8c-1.1,3.4-1.3,7-0.5,10.5l0.2,0.8l0.7-0.4
			c3.1-2.1,5.6-5,7.1-8.4c2.8-5.9,0.5-10.3,0.4-10.5l-0.3-0.6L96.1,66.6z M89.2,80.8c0-1.9,0.3-3.7,0.9-5.5c0.2-0.5,0.5-1.1,0.7-1.6
			c1.3-2.3,3-4.2,5.2-5.7c0.4,1.1,0.6,2.2,0.6,3.4c0,1.9-0.4,3.7-1.3,5.4c-1.4,2.9-3.4,5.4-5.9,7.4C89.2,83.1,89.1,81.9,89.2,80.8z"
			/>
		<path class="st1" d="M107.4,57.6c-2.8,1.3-5.2,3.4-6.8,6.1c-0.3,0.5-0.7,1.1-0.9,1.7c-1.4,3.3-1.9,6.9-1.5,10.5l0.1,0.9l0.8-0.4
			c3.2-2,5.8-4.7,7.7-8c3.3-5.7,1.5-10.2,1.5-10.4l-0.2-0.6L107.4,57.6z M99.3,73.7c0-2.7,0.5-5.4,1.5-7.8c0.2-0.5,0.5-1,0.8-1.5
			c1.4-2.2,3.3-4,5.6-5.3c0.2,0.7,0.3,1.5,0.2,2.2c0,2.2-0.7,4.4-1.8,6.4c-1.6,2.8-3.8,5.1-6.3,7C99.3,74.4,99.3,74.1,99.3,73.7z"/>
		<path class="st1" d="M119.4,49.3c-3,1.1-5.5,3-7.3,5.6c-0.4,0.5-0.7,1.1-1,1.6c-1.6,3.3-2.5,6.8-2.6,10.5v1l0.9-0.4
			c3.3-1.9,6.1-4.5,8.2-7.7c3.8-5.5,2.5-10,2.5-10.2l-0.2-0.6L119.4,49.3z M112.2,57.1c0.3-0.5,0.6-1,0.9-1.5c1.5-2.1,3.6-3.8,6-4.9
			c0,0.4,0.1,0.7,0.1,1.1c-0.1,2.7-0.9,5.2-2.5,7.4c-1.8,2.6-4.1,4.9-6.8,6.7C110.1,62.8,110.9,59.9,112.2,57.1L112.2,57.1z"/>
		<path class="st1" d="M131.9,41.7c-0.2,0-4,0.8-7.8,5.2s-4.6,11.7-4.7,12l-0.1,1.1l1-0.5c3.4-1.7,6.4-4.2,8.8-7.2
			c4.3-5.3,3.5-9.9,3.5-10.1l-0.1-0.6L131.9,41.7z M125.1,47.7c1.7-2.1,3.9-3.7,6.4-4.6c0,0,0,0.1,0,0.1c-0.1,3.1-1.3,6-3.3,8.3
			c-2,2.5-4.5,4.7-7.3,6.3C121.3,55.6,122.5,50.8,125.1,47.7L125.1,47.7z"/>
		<path class="st1" d="M12.3,104.2c0,30.5,16.5,59.8,43,76.5l1.1,0.7l0.8-1c0.2-0.2,0.3-0.5,0.3-0.8c-0.1-0.6-0.4-1.1-0.9-1.5
			l-1.5-1.5c-5.5-6.2-6.9-12.1-6.9-16.6c0-3,0.6-5.9,1.9-8.6l0.5-0.9l-0.6-0.8c-11.2-12.5-17.3-28.7-17.1-45.5
			c0.1-38,30.8-68.8,68.8-68.9c10.4,0,20.7,2.3,30.1,6.9l1,0.5l13.9-15.8l-1.6-0.9C101.9,2,47.5,17.6,23.5,60.8
			C16.2,74.1,12.3,89,12.3,104.2L12.3,104.2z M15.2,104.2c0-47.8,38.7-86.5,86.4-86.6c14.1,0,28.1,3.4,40.6,10.1l-10.1,11.5
			c-9.5-4.5-19.9-6.8-30.4-6.7C62.1,32.5,30,64.6,30,104.2c-0.2,17.1,6,33.8,17.3,46.7c-1.2,2.9-1.8,6-1.8,9.1
			c0,4.4,1.2,8.7,3.3,12.5C27.9,155.8,15.2,130.4,15.2,104.2z"/>
		<path class="st1" d="M133.1,39.7c-9.8-4.8-20.5-7.2-31.4-7.2C62.1,32.5,30,64.6,30,104.2c-0.2,17.5,6.2,34.4,17.9,47.4l1.2,1.4
			l5.5-8.2l-0.3-0.3c-0.4,0-0.8-0.1-1.2-0.2c0.1-0.2,0.2-0.5,0.3-0.9c-0.4-0.5-0.9-1-1.3-1.5c-0.3,0.5-0.7,1-1.1,1.5
			c-1.1-1.1-3.8-4.5-3.8-8.5c0-0.1,0-0.3,0-0.4c-5.2-9.2-7.8-19.7-7.7-30.2c0-34.4,27.9-62.2,62.2-62.2c8.3,0,16.5,1.6,24.2,4.9
			c0.7-0.7,1.5-1.4,2.4-2c-8.4-3.8-17.4-5.7-26.6-5.7c-35.9,0-65,29.2-65.1,65.1c0,15.6,4.9,29.2,14.4,40.7l-2.2,3.4
			c-10.5-12.3-16.1-27.9-16-44.1c0-38,30.9-68.9,68.9-68.9c10,0,19.8,2.1,28.8,6.3l-1.1,2.4c0.6-0.4,1.3-0.7,2-0.9c0,0,0,0.1,0,0.1
			c0,1.9-0.5,3.8-1.4,5.5l0.3,0.2l4-8.6L133.1,39.7z"/>
		<path class="st1" d="M132.4,25.6l-6.9,8.7c0.6,0.2,1.3,0.4,1.9,0.7l6.8-8.6L132.4,25.6z"/>
		<path class="st1" d="M119,21.6l-4,9.9l1.9,0.4l4-9.9L119,21.6z"/>
		<path class="st1" d="M103,19.8l-1,10.5h1.9l1-10.5L103,19.8z"/>
		<path class="st1" d="M87.5,21l2,10.3l1.9-0.3l-2-10.3L87.5,21z"/>
		<path class="st1" d="M72.4,25l4.7,9.5l1.8-0.6l-4.7-9.5L72.4,25z"/>
		<path class="st1" d="M58.1,32l7,8c0.6-0.3,1.1-0.6,1.7-0.9l-7-8.1L58.1,32z"/>
		<path class="st1" d="M45,41.7l8.9,6.2c0.5-0.4,1-0.8,1.5-1.2l-9-6.2L45,41.7z"/>
		<path class="st1" d="M34,53.9l10.2,4c0.4-0.5,0.8-1,1.3-1.5l-10.3-4C34.8,52.8,34.4,53.4,34,53.9z"/>
		<path class="st1" d="M25.4,68.1l11,1.5c0.3-0.6,0.6-1.2,1-1.8l-11.1-1.5C26,66.9,25.7,67.5,25.4,68.1z"/>
		<path class="st1" d="M19.8,83.6L31,82.6c0.2-0.7,0.4-1.3,0.6-2l-11.3,1.1C20.2,82.3,20,83,19.8,83.6z"/>
		<path class="st1" d="M17.4,100l10.8-3.8c0.1-0.7,0.2-1.4,0.3-2.1l-11,3.8C17.5,98.6,17.5,99.3,17.4,100z"/>
		<path class="st1" d="M18.2,116.4L28,110c0-0.7-0.1-1.4-0.1-2.2l-10,6.5C18,115.1,18.1,115.7,18.2,116.4z"/>
		<path class="st1" d="M22.4,132.5l8-8.8c-0.2-0.7-0.4-1.5-0.5-2.2l-8.1,8.9C22,131.2,22.2,131.9,22.4,132.5z"/>
		<path class="st1" d="M29.9,147.9l5.6-10.7c-0.3-0.7-0.7-1.4-1-2.1L28.8,146C29.1,146.7,29.5,147.3,29.9,147.9z"/>
		<path class="st1" d="M39.5,160.8l3-12.4c-0.5-0.7-1-1.3-1.5-2l-3,12.7C38.5,159.6,39,160.2,39.5,160.8z"/>
		<path class="st1" d="M131,49.5l0.8,0.5c0.2-0.1,0.5-0.2,0.7-0.3l0.8-0.3c-0.6-0.4-1.1-0.8-1.6-1.3C131.5,48.6,131.3,49.1,131,49.5
			z"/>
		<g id="IPP-2">
			<polygon class="st2" points="337.5,22.4 518.6,22.4 518.6,184.2 337.5,184.2 337.5,22.4 			"/>
			<path class="st3" d="M451.8,87.7V44c0-3.9-3.9-7.8-8.2-8.2h-29v88.3h14.8V95.9h15.6c2.4,0.2,6.7-4.1,6.7-7.4L451.8,87.7
				L451.8,87.7z"/>
			<path class="st4" d="M429.5,85.5h5.2c1.2,0,2.2-1,2.2-2.2c0.1-13.2,0.1-21,0-34.1c0-1.2-1-2.2-2.2-2.2c-1.7-0.1-3.5-0.1-5.2,0
				L429.5,85.5L429.5,85.5z"/>
			<polygon class="st3" points="351.6,35.8 367.2,35.8 367.2,124.1 351.6,124.1 351.6,35.8 			"/>
			<path class="st3" d="M410.3,87.7V44c0.3-3.9-3.6-7.8-8.2-8.2h-29v88.3H388V95.9h15.6c2.6,0.2,7-4.1,6.7-7.4L410.3,87.7
				L410.3,87.7z"/>
			<path class="st4" d="M388,85.5h5.2c1.1,0,2.5-0.8,2.2-2.2c0.4-13.2,0.4-21,0-34.1c0.3-1.2-0.9-2.3-2.2-2.2
				c-1.7-0.1-3.5-0.1-5.2,0V85.5z"/>
		</g>
		<path class="st1" d="M592.8,97.3V54h6.5l12.8,39.1h0.1L624.9,54h6.1v43.3h-3.8V57.7H627l-12.7,39.6h-4.4l-13.1-39.6h-0.1v39.6
			H592.8z"/>
		<path class="st1" d="M654.6,93.6h-0.1c-1.9,2.9-5.2,4.5-8.6,4.3c-5.4,0-8.3-3.7-8.3-8.9c0-10.6,10.7-9.5,16.8-10v-2.5
			c0-4.4-1.3-7.1-6.1-7.1c-3.3,0-5.9,1.6-5.9,5.2h-3.8c0.3-5.8,4.8-8.1,10.1-8.1c3.1,0,9.4,0.3,9.4,8v15.3c0,2.5,0.1,5.1,0.4,7.6
			h-3.7L654.6,93.6z M654.4,81.8c-5.2,0.2-13-0.4-13,7c0,3.4,1.7,6.2,5.5,6.2c4.1-0.1,7.4-3.5,7.5-7.7L654.4,81.8z"/>
		<path class="st1" d="M671.5,81.2L664,67h4.3l5.5,11.4l6-11.4h4l-7.9,14l8.8,16.3h-4.4l-6.7-13.1l-7,13.1h-4L671.5,81.2z"/>
		<path class="st1" d="M702.4,54h11.9c3.6,0,9.5,0.5,9.5,10.5c0,8.7-2.8,12.7-10.3,12.7h-7.3v20.2h-3.8L702.4,54z M706.2,73.9h7.1
			c4,0,6.6-1.9,6.6-8.7c0-7.4-3.2-8-6.7-8h-7.1V73.9z"/>
		<path class="st1" d="M730.1,97.3V54h3.6v43.3H730.1z"/>
		<path class="st1" d="M757.8,93.6h-0.1c-1.9,2.9-5.2,4.5-8.6,4.3c-5.4,0-8.3-3.7-8.3-8.9c0-10.6,10.7-9.5,16.8-10v-2.5
			c0-4.4-1.3-7.1-6.1-7.1c-3.3,0-5.9,1.6-5.9,5.2h-3.8c0.3-5.8,4.8-8.1,10.1-8.1c3.1,0,9.4,0.3,9.4,8v15.3c0,2.5,0.1,5.1,0.4,7.6
			h-3.7L757.8,93.6z M757.6,81.8c-5.2,0.2-13-0.4-13,7c0,3.4,1.7,6.2,5.5,6.2c4.1-0.1,7.4-3.5,7.5-7.7L757.6,81.8z"/>
		<path class="st1" d="M772.4,97.3h-3.6V67h3.6v3.7h0.1c1.7-2.5,4.1-4.3,7.3-4.3c7.5,0,8.3,5.6,8.3,9.5v21.4h-3.6V76.2
			c0-3.5-1.4-6.8-5.6-6.8c-3.2,0-6.5,2.2-6.5,9L772.4,97.3z"/>
		<path class="st1" d="M809,75.7c0.2-3.8-1.2-6.4-5.3-6.4c-2.2,0-4.2,1.4-4.9,3.5c-0.5,1.4-0.8,5.5-0.8,9.5c0,5.5,0,12.7,5.6,12.7
			c4.7,0,5.3-3,5.5-6.7h3.6c0.3,8.2-5.5,9.5-8.3,9.5c-10.3,0-10.3-8.1-10.3-15.6c0-3,0.1-7.7,0.9-10c1.6-4.3,5-5.9,9.1-5.9
			c5.2,0,8.8,2.9,8.5,9.3L809,75.7z"/>
		<path class="st1" d="M818.9,54h3.6v26.4h0.1L833.1,67h4.2l-10.7,13.5L838,97.3h-4.6l-10.8-16.5h-0.1v16.5h-3.6L818.9,54z"/>
		<path class="st1" d="M860.4,54v43.3h-3.8V54H860.4z"/>
		<path class="st1" d="M872.4,97.3h-3.6V67h3.6v3.7h0.1c1.7-2.5,4.1-4.3,7.3-4.3c7.5,0,8.3,5.6,8.3,9.5v21.4h-3.6V76.2
			c0-3.5-1.4-6.8-5.6-6.8c-3.2,0-6.5,2.2-6.5,9L872.4,97.3z"/>
		<path class="st1" d="M903.5,97.9c-6.5,0-9.1-3.2-9.1-9.6h3.7c0,4.1,1,6.9,5.6,6.9c3.5,0,5.2-2,5.2-5.3c0-7.9-13.6-5.9-13.6-15.9
			c0-5.6,3.8-7.6,9.1-7.6c6,0,7.9,4.1,7.9,8.8h-3.5c-0.2-3.8-1.2-5.9-5.3-5.9c-2.4-0.2-4.4,1.6-4.6,4c0,0.1,0,0.2,0,0.4
			c0,7.6,13.6,5.5,13.6,15.7C912.4,95.1,909.1,97.9,903.5,97.9z"/>
		<path class="st1" d="M916.1,69.9V67h4.9v-6.2l3.6-1.6V67h6.1v2.9h-6.1v19.5c0,4,0.4,5,3.3,5c0.9,0,1.9,0,2.8-0.2v3.1
			c-1.1,0.1-2.3,0.2-3.4,0.2c-4.9,0-6.3-2.2-6.3-5.9V69.9H916.1z"/>
		<path class="st1" d="M936.2,58.6V54h4.4v4.6L936.2,58.6z M936.6,97.3V67h3.6v30.3L936.6,97.3z"/>
		<path class="st1" d="M946.1,69.9V67h4.9v-6.2l3.6-1.6V67h6.1v2.9h-6.1v19.5c0,4,0.4,5,3.3,5c0.9,0,1.9,0,2.8-0.2v3.1
			c-1.1,0.1-2.3,0.2-3.4,0.2c-4.9,0-6.3-2.2-6.3-5.9V69.9H946.1z"/>
		<path class="st1" d="M984.5,67v30.3h-3.1V94h-0.1c-2.1,2.6-4.3,4-7.6,4c-6.2,0-8-4.6-8-9.5V67h3.6v20.8c0,0.8-0.2,7.2,5,7.2
			c4.9,0,6.6-4.6,6.6-6.7V67H984.5z"/>
		<path class="st1" d="M989.4,69.9V67h4.9v-6.2l3.6-1.6V67h6.2v2.9h-6.1v19.5c0,4,0.4,5,3.3,5c0.9,0,1.9,0,2.8-0.2v3.1
			c-1.1,0.1-2.3,0.2-3.4,0.2c-4.9,0-6.3-2.2-6.3-5.9V69.9H989.4z"/>
		<path class="st1" d="M1011.6,82.9v2.3c0,4.2,1.1,9.8,6.8,9.8c4.5,0,6.7-2.9,6.7-7h3.8c-0.4,7.3-4.4,9.8-10.4,9.8
			c-5.2,0-10.4-2.1-10.4-11.3v-7.4c0-8.8,3.7-12.8,10.4-12.8c10.4,0,10.4,7.5,10.4,16.5H1011.6z M1025.3,80.1
			c0-6.7-1.1-10.7-6.8-10.7s-6.8,4-6.8,10.7H1025.3z"/>
		<path class="st1" d="M594.6,129.9h-4.9V127h4.9v-5.1c0-2.9,0.4-8.2,7.7-8.2c0.7,0,1.3,0.1,2,0.2v3h-2.7c-3.5,0-3.5,3.1-3.5,4.9
			v5.2h6.1v2.9h-6.1v27.4h-3.6L594.6,129.9z"/>
		<path class="st1" d="M608.2,145.4v-6.5c0-7.9,3.4-12.5,10.4-12.5s10.4,4.6,10.4,12.5v6.5c0,7.9-3.4,12.5-10.4,12.5
			S608.2,153.3,608.2,145.4z M611.8,142.1c0,7.9,0.9,12.9,6.8,12.9s6.8-5,6.8-12.9s-0.9-12.8-6.8-12.8S611.8,134.3,611.8,142.1z"/>
		<path class="st1" d="M639.4,131.1h0.1c1.7-3,4.9-4.8,8.3-4.7v3.7c-5.1-0.4-8.5,2.6-8.5,7.7v19.5h-3.6V127h3.6V131.1z"/>
		<path class="st1" d="M665.8,114h11.9c3.6,0,9.5,0.5,9.5,10.5c0,8.7-2.8,12.7-10.3,12.7h-7.3v20.2h-3.8L665.8,114z M669.6,133.9
			h7.1c4,0,6.6-1.9,6.6-8.7c0-7.4-3.2-8-6.7-8h-7.1V133.9z"/>
		<path class="st1" d="M693.4,157.3V114h3.6v43.3L693.4,157.3z"/>
		<path class="st1" d="M721.2,153.6h-0.1c-1.9,2.9-5.2,4.5-8.6,4.3c-5.4,0-8.3-3.7-8.3-8.9c0-10.6,10.7-9.5,16.8-10v-2.5
			c0-4.4-1.3-7.1-6.1-7.1c-3.3,0-5.9,1.6-5.9,5.2H705c0.3-5.8,4.8-8.1,10.1-8.1c3.1,0,9.4,0.3,9.4,8v15.2c0,2.5,0.1,5.1,0.4,7.6
			h-3.7L721.2,153.6z M721,141.9c-5.2,0.2-13-0.4-13,7c0,3.4,1.7,6.2,5.5,6.2c4.1-0.1,7.4-3.5,7.5-7.7L721,141.9z"/>
		<path class="st1" d="M740.2,157.9c-6.5,0-9.1-3.2-9.1-9.6h3.7c0,4.1,1,6.9,5.6,6.9c3.5,0,5.2-2,5.2-5.3c0-7.9-13.6-5.9-13.6-15.9
			c0-5.6,3.8-7.6,9.1-7.6c6,0,7.9,4.1,7.9,8.8h-3.5c-0.2-3.8-1.2-5.9-5.3-5.9c-2.4-0.2-4.4,1.6-4.6,4c0,0.1,0,0.2,0,0.4
			c0,7.6,13.6,5.5,13.6,15.7C749.2,155.1,745.8,157.9,740.2,157.9z"/>
		<path class="st1" d="M759,157.3h-3.6V127h3.2v3.8h0.1c1.4-2.7,4.2-4.3,7.2-4.3c3.1-0.1,5.9,1.8,6.9,4.7c1.3-2.9,4.2-4.8,7.4-4.7
			c5,0,7.7,3.5,7.9,8.3v22.6h-3.6v-21.7c-0.1-3-1.1-6.4-4.7-6.4c-4.6,0-6.3,4.6-6.3,8.5v19.5H770v-21.7c-0.1-3-1.1-6.4-4.7-6.4
			c-4.6,0-6.3,4.6-6.3,8.5L759,157.3z"/>
		<path class="st1" d="M811.2,153.6h-0.1c-1.9,2.9-5.2,4.5-8.6,4.3c-5.4,0-8.3-3.7-8.3-8.9c0-10.6,10.7-9.5,16.8-10v-2.5
			c0-4.4-1.3-7.1-6.1-7.1c-3.3,0-5.9,1.6-5.9,5.2H795c0.3-5.8,4.8-8.1,10.1-8.1c3.1,0,9.4,0.3,9.4,8v15.2c0,2.5,0.1,5.1,0.4,7.6
			h-3.7L811.2,153.6z M811,141.9c-5.2,0.2-13-0.4-13,7c0,3.4,1.7,6.2,5.5,6.2c4.1-0.1,7.4-3.5,7.5-7.7L811,141.9z"/>
		<path class="st1" d="M835.7,114h11.9c3.6,0,9.5,0.5,9.5,10.5c0,8.7-2.8,12.7-10.3,12.7h-7.3v20.2h-3.8L835.7,114z M839.5,133.9
			h7.1c4,0,6.6-1.9,6.6-8.7c0-7.4-3.2-8-6.7-8h-7.1V133.9z"/>
		<path class="st1" d="M862.1,157.3V114h3.6v16.7h0.1c1.7-2.5,4.1-4.3,7.3-4.3c7.5,0,8.3,5.6,8.3,9.5v21.4h-3.6v-21.2
			c0-3.5-1.4-6.8-5.6-6.8c-3.2,0-6.5,2.2-6.5,9v19L862.1,157.3z"/>
		<path class="st1" d="M895.3,157.4l-9.6-30.4h3.9l7.4,24.9h0.1l7.1-24.9h3.6l-12.5,41.8h-3.5L895.3,157.4z"/>
		<path class="st1" d="M920.1,157.9c-6.5,0-9.1-3.2-9.1-9.6h3.7c0,4.1,1,6.9,5.6,6.9c3.5,0,5.2-2,5.2-5.3c0-7.9-13.6-5.9-13.6-15.9
			c0-5.6,3.8-7.6,9.1-7.6c6,0,7.9,4.1,7.9,8.8h-3.5c-0.2-3.8-1.2-5.9-5.3-5.9c-2.4-0.2-4.4,1.6-4.6,4c0,0.1,0,0.2,0,0.4
			c0,7.6,13.6,5.5,13.6,15.7C929.1,155.1,925.8,157.9,920.1,157.9z"/>
		<path class="st1" d="M936.2,118.6V114h4.4v4.6L936.2,118.6z M936.6,157.3V127h3.6v30.3L936.6,157.3z"/>
		<path class="st1" d="M962.3,135.7c0.2-3.8-1.2-6.4-5.3-6.4c-2.2,0-4.2,1.4-4.9,3.5c-0.5,1.4-0.8,5.5-0.8,9.5
			c0,5.5,0,12.7,5.6,12.7c4.7,0,5.3-3,5.5-6.7h3.6c0.3,8.2-5.5,9.5-8.3,9.5c-10.3,0-10.3-8.1-10.3-15.6c0-3,0.1-7.7,0.9-10
			c1.6-4.3,5-5.9,9.1-5.9c5.2,0,8.8,2.9,8.5,9.3L962.3,135.7z"/>
		<path class="st1" d="M980.1,157.9c-6.5,0-9.1-3.2-9.1-9.6h3.7c0,4.1,1,6.9,5.6,6.9c3.5,0,5.2-2,5.2-5.3c0-7.9-13.6-5.9-13.6-15.9
			c0-5.6,3.8-7.6,9.1-7.6c6,0,7.9,4.1,7.9,8.8h-3.5c-0.2-3.8-1.2-5.9-5.3-5.9c-2.4-0.2-4.4,1.6-4.6,4c0,0.1,0,0.2,0,0.4
			c0,7.6,13.6,5.5,13.6,15.7C989.1,155.1,985.8,157.9,980.1,157.9z"/>
	</g>
</g>
</svg>
